<svg t="1584482602212" class="icon" viewBox="0 0 1024 1024" version="1.1" xmlns="http://www.w3.org/2000/svg" p-id="1716" width="200" height="200"><path d="M958.375 833.496H65.625A1.626 1.626 0 0 1 64 831.871V300.316c0-0.897 0.728-1.625 1.625-1.625h892.75c0.897 0 1.625 0.728 1.625 1.625V831.87c0 0.898-0.728 1.626-1.625 1.626z" fill="#0DB14B" p-id="1717"></path><path d="M929.705 298.691h-25.633v467.225c0 16.731-13.562 30.294-30.294 30.294H64v6.992c0 16.73 13.563 30.294 30.294 30.294h835.411c16.731 0 30.295-13.564 30.295-30.294V328.985c0-16.73-13.564-30.294-30.295-30.294z" fill="#030504" p-id="1718"></path><path d="M604.628 560.85m-217.883 0a217.883 217.883 0 1 0 435.766 0 217.883 217.883 0 1 0-435.766 0Z" fill="#EEEEEE" p-id="1719"></path><path d="M604.628 341.802c-6.293 0-12.484 0.418-18.643 0.942 111.591 9.475 199.24 102.897 199.24 216.941 0 114.043-87.649 207.464-199.24 216.941 6.159 0.523 12.35 0.941 18.643 0.941 120.337 0 217.883-97.545 217.883-217.882 0.001-120.338-97.545-217.883-217.883-217.883z" fill="#030504" p-id="1720"></path><path d="M455.494 557.141c-8.248 0-14.933-6.687-14.933-14.933 0-74.98 60.994-135.978 135.974-135.978 8.248 0 14.933 6.686 14.933 14.933 0 8.246-6.685 14.933-14.933 14.933-58.507 0-106.107 47.6-106.107 106.111-0.001 8.247-6.688 14.934-14.934 14.934z" fill="#152B3C" p-id="1721"></path><path d="M334 443.067c0 8.247-6.686 14.933-14.933 14.933H212.933c-8.248 0-14.933-6.686-14.933-14.933v-44.133c0-8.247 6.686-14.933 14.933-14.933h106.133c8.247 0 14.933 6.686 14.933 14.933v44.133z" fill="#030504" p-id="1722"></path><path d="M305 431.067c0 8.247-6.686 14.933-14.933 14.933H183.933c-8.248 0-14.933-6.686-14.933-14.933v-44.133c0-8.247 6.686-14.933 14.933-14.933h106.133c8.247 0 14.933 6.686 14.933 14.933v44.133z" fill="#FF3B30" p-id="1723"></path><path d="M809.694 298H399.563l18.642-108h372.848z" fill="#152B3C" p-id="1724"></path><path d="M791.053 192.729h-49.714l2.722 10.44c5.082 30.486-18.428 58.238-49.335 58.238l-292.707 22.546-2.456 14.738h410.132l-18.642-105.962z" fill="#030504" p-id="1725"></path><path d="M198 265h103v33H198z" fill="#152B3C" p-id="1726"></path></svg>