<svg t="1584488934813" class="icon" viewBox="0 0 1024 1024" version="1.1" xmlns="http://www.w3.org/2000/svg" p-id="1854" width="200" height="200"><path d="M897.138 952.999c-20.093 4.317-166.864-71.461-188.563-71.461-138.861 0-251.415-94.193-251.415-210.379 0-116.195 112.554-210.39 251.415-210.39C847.412 460.77 960 554.965 960 671.159c0 66.435-36.811 125.679-94.276 164.237-6.283 4.187-6.19 12.286-2.698 22.315l34.112 95.288z" fill="#152B3C" p-id="1855"></path><path d="M708.575 460.77c-138.861 0-251.415 94.195-251.415 210.391 0 56.248 26.541 107.22 69.518 144.967 3.157-0.723 5.842-1.162 7.804-1.162 186.783 0 344.007-105.498 391.507-249.133-43.518-62.751-124.487-105.063-217.414-105.063z" fill="#030504" p-id="1856"></path><path d="M165.588 866.278c32.47 6.977 269.656-115.483 304.722-115.483 224.402 0 406.292-152.219 406.292-339.976 0-187.775-181.891-339.996-406.292-339.996C245.948 70.823 64 223.044 64 410.819c0 107.36 59.488 203.099 152.353 265.41 10.152 6.766 10.002 19.854 4.36 36.061l-55.125 153.988z" fill="#0DB14B" p-id="1857"></path><path d="M172.772 417.176c-12.374 0-22.4-10.029-22.4-22.4 0-129.058 123.521-234.055 275.341-234.055 12.374 0 22.4 10.029 22.4 22.4 0 12.37-10.026 22.4-22.4 22.4-127.123 0-230.541 84.901-230.541 189.255-0.001 12.371-10.027 22.4-22.4 22.4z" fill="#FFFFFF" p-id="1858"></path><path d="M756.433 169.469c45.387 54.879 72.041 121.431 72.041 193.223 0 187.757-181.891 339.975-406.293 339.975-24.589 0-148.503 60.175-231.585 93.751l-25.009 69.86c32.471 6.977 269.656-115.484 304.722-115.484 224.402 0 406.292-152.219 406.292-339.975 0.002-94.374-45.969-179.748-120.168-241.35z" fill="#030504" p-id="1859"></path></svg>